<?xml version="1.0" encoding="UTF-8" standalone="no"?>
<!DOCTYPE svg PUBLIC "-//W3C//DTD SVG 1.1//EN"
 "http://www.w3.org/Graphics/SVG/1.1/DTD/svg11.dtd">
<!-- Generated by graphviz version 2.38.0 (20140413.2041)
 -->
<!-- Title: graphname Pages: 1 -->
<svg width="999pt" height="2219pt"
 viewBox="0.00 0.00 998.69 2219.00" xmlns="http://www.w3.org/2000/svg" xmlns:xlink="http://www.w3.org/1999/xlink">
<g id="graph0" class="graph" transform="scale(1 1) rotate(0) translate(4 2215)">
<title>graphname</title>
<polygon fill="white" stroke="none" points="-4,4 -4,-2215 994.687,-2215 994.687,4 -4,4"/>
<!-- 143806648 -->
<g id="node1" class="node"><title>143806648</title>
<polygon fill="#e0e0e0" stroke="black" points="218.124,-1315.54 218.124,-1330.46 154.225,-1341 63.8578,-1341 -0.0413546,-1330.46 -0.0413546,-1315.54 63.8578,-1305 154.225,-1305 218.124,-1315.54"/>
<text text-anchor="middle" x="109.041" y="-1319.3" font-family="Times New Roman,serif" font-size="14.00">W: (20, 20, 3, 3), float32</text>
</g>
<!-- 168393696 -->
<g id="node10" class="node"><title>168393696</title>
<polygon fill="#6495ed" stroke="black" points="230.041,-1232.5 230.041,-1268.5 382.041,-1268.5 382.041,-1232.5 230.041,-1232.5"/>
<text text-anchor="middle" x="306.041" y="-1246.8" font-family="Times New Roman,serif" font-size="14.00">Convolution2DFunction</text>
</g>
<!-- 143806648&#45;&gt;168393696 -->
<g id="edge34" class="edge"><title>143806648&#45;&gt;168393696</title>
<path fill="none" stroke="black" d="M155.977,-1305.2C183.789,-1295.25 219.238,-1282.56 248.698,-1272.02"/>
<polygon fill="black" stroke="black" points="250.204,-1275.2 258.439,-1268.54 247.845,-1268.61 250.204,-1275.2"/>
</g>
<!-- 168393136 -->
<g id="node2" class="node"><title>168393136</title>
<polygon fill="#6495ed" stroke="black" points="273.541,-797.5 273.541,-833.5 338.541,-833.5 338.541,-797.5 273.541,-797.5"/>
<text text-anchor="middle" x="306.041" y="-811.8" font-family="Times New Roman,serif" font-size="14.00">Reshape</text>
</g>
<!-- 143809672 -->
<g id="node17" class="node"><title>143809672</title>
<polygon fill="#e0e0e0" stroke="black" points="385.531,-735.544 385.531,-750.456 338.967,-761 273.116,-761 226.552,-750.456 226.552,-735.544 273.116,-725 338.967,-725 385.531,-735.544"/>
<text text-anchor="middle" x="306.041" y="-739.3" font-family="Times New Roman,serif" font-size="14.00">(100, 80), float32</text>
</g>
<!-- 168393136&#45;&gt;143809672 -->
<g id="edge25" class="edge"><title>168393136&#45;&gt;143809672</title>
<path fill="none" stroke="black" d="M306.041,-797.434C306.041,-789.67 306.041,-780.284 306.041,-771.56"/>
<polygon fill="black" stroke="black" points="309.541,-771.399 306.041,-761.399 302.541,-771.399 309.541,-771.399"/>
</g>
<!-- 143806984 -->
<g id="node3" class="node"><title>143806984</title>
<polygon fill="#e0e0e0" stroke="black" points="375.833,-1315.54 375.833,-1330.46 334.95,-1341 277.133,-1341 236.25,-1330.46 236.25,-1315.54 277.133,-1305 334.95,-1305 375.833,-1315.54"/>
<text text-anchor="middle" x="306.041" y="-1319.3" font-family="Times New Roman,serif" font-size="14.00">b: (20), float32</text>
</g>
<!-- 143806984&#45;&gt;168393696 -->
<g id="edge12" class="edge"><title>143806984&#45;&gt;168393696</title>
<path fill="none" stroke="black" d="M306.041,-1304.93C306.041,-1297.17 306.041,-1287.78 306.041,-1279.06"/>
<polygon fill="black" stroke="black" points="309.541,-1278.9 306.041,-1268.9 302.541,-1278.9 309.541,-1278.9"/>
</g>
<!-- 168391232 -->
<g id="node4" class="node"><title>168391232</title>
<polygon fill="#6495ed" stroke="black" points="417.041,-1667.5 417.041,-1703.5 569.041,-1703.5 569.041,-1667.5 417.041,-1667.5"/>
<text text-anchor="middle" x="493.041" y="-1681.8" font-family="Times New Roman,serif" font-size="14.00">Convolution2DFunction</text>
</g>
<!-- 168392520 -->
<g id="node39" class="node"><title>168392520</title>
<polygon fill="#e0e0e0" stroke="black" points="592.427,-1605.54 592.427,-1620.46 534.208,-1631 451.875,-1631 393.656,-1620.46 393.656,-1605.54 451.875,-1595 534.208,-1595 592.427,-1605.54"/>
<text text-anchor="middle" x="493.041" y="-1609.3" font-family="Times New Roman,serif" font-size="14.00">(100, 20, 9, 9), float32</text>
</g>
<!-- 168391232&#45;&gt;168392520 -->
<g id="edge32" class="edge"><title>168391232&#45;&gt;168392520</title>
<path fill="none" stroke="black" d="M493.041,-1667.43C493.041,-1659.67 493.041,-1650.28 493.041,-1641.56"/>
<polygon fill="black" stroke="black" points="496.541,-1641.4 493.041,-1631.4 489.541,-1641.4 496.541,-1641.4"/>
</g>
<!-- 168393472 -->
<g id="node5" class="node"><title>168393472</title>
<polygon fill="#6495ed" stroke="black" points="279.041,-1087.5 279.041,-1123.5 333.041,-1123.5 333.041,-1087.5 279.041,-1087.5"/>
<text text-anchor="middle" x="306.041" y="-1101.8" font-family="Times New Roman,serif" font-size="14.00">ReLU</text>
</g>
<!-- 168393864 -->
<g id="node18" class="node"><title>168393864</title>
<polygon fill="#e0e0e0" stroke="black" points="405.427,-1025.54 405.427,-1040.46 347.208,-1051 264.875,-1051 206.656,-1040.46 206.656,-1025.54 264.875,-1015 347.208,-1015 405.427,-1025.54"/>
<text text-anchor="middle" x="306.041" y="-1029.3" font-family="Times New Roman,serif" font-size="14.00">(100, 20, 3, 3), float32</text>
</g>
<!-- 168393472&#45;&gt;168393864 -->
<g id="edge30" class="edge"><title>168393472&#45;&gt;168393864</title>
<path fill="none" stroke="black" d="M306.041,-1087.43C306.041,-1079.67 306.041,-1070.28 306.041,-1061.56"/>
<polygon fill="black" stroke="black" points="309.541,-1061.4 306.041,-1051.4 302.541,-1061.4 309.541,-1061.4"/>
</g>
<!-- 168393528 -->
<g id="node6" class="node"><title>168393528</title>
<polygon fill="#e0e0e0" stroke="black" points="592.427,-1315.54 592.427,-1330.46 534.208,-1341 451.875,-1341 393.656,-1330.46 393.656,-1315.54 451.875,-1305 534.208,-1305 592.427,-1315.54"/>
<text text-anchor="middle" x="493.041" y="-1319.3" font-family="Times New Roman,serif" font-size="14.00">(100, 20, 5, 5), float32</text>
</g>
<!-- 168393528&#45;&gt;168393696 -->
<g id="edge41" class="edge"><title>168393528&#45;&gt;168393696</title>
<path fill="none" stroke="black" d="M449.198,-1305.47C422.835,-1295.53 389.053,-1282.8 360.927,-1272.19"/>
<polygon fill="black" stroke="black" points="361.827,-1268.79 351.235,-1268.54 359.358,-1275.34 361.827,-1268.79"/>
</g>
<!-- 143807320 -->
<g id="node7" class="node"><title>143807320</title>
<polygon fill="#e0e0e0" stroke="black" points="590.67,-735.544 590.67,-750.456 535.824,-761 458.259,-761 403.412,-750.456 403.412,-735.544 458.259,-725 535.824,-725 590.67,-735.544"/>
<text text-anchor="middle" x="497.041" y="-739.3" font-family="Times New Roman,serif" font-size="14.00">W: (100, 80), float32</text>
</g>
<!-- 143810232 -->
<g id="node33" class="node"><title>143810232</title>
<polygon fill="#6495ed" stroke="black" points="446.541,-652.5 446.541,-688.5 547.541,-688.5 547.541,-652.5 446.541,-652.5"/>
<text text-anchor="middle" x="497.041" y="-666.8" font-family="Times New Roman,serif" font-size="14.00">LinearFunction</text>
</g>
<!-- 143807320&#45;&gt;143810232 -->
<g id="edge11" class="edge"><title>143807320&#45;&gt;143810232</title>
<path fill="none" stroke="black" d="M497.041,-724.934C497.041,-717.17 497.041,-707.784 497.041,-699.06"/>
<polygon fill="black" stroke="black" points="500.541,-698.899 497.041,-688.899 493.541,-698.899 500.541,-698.899"/>
</g>
<!-- 168393640 -->
<g id="node8" class="node"><title>168393640</title>
<polygon fill="#e0e0e0" stroke="black" points="902.101,-155.544 902.101,-170.456 869.262,-181 822.821,-181 789.982,-170.456 789.982,-155.544 822.821,-145 869.262,-145 902.101,-155.544"/>
<text text-anchor="middle" x="846.041" y="-159.3" font-family="Times New Roman,serif" font-size="14.00">(100), int32</text>
</g>
<!-- 168473656 -->
<g id="node14" class="node"><title>168473656</title>
<polygon fill="#6495ed" stroke="black" points="697.541,-72.5 697.541,-108.5 840.541,-108.5 840.541,-72.5 697.541,-72.5"/>
<text text-anchor="middle" x="769.041" y="-86.8" font-family="Times New Roman,serif" font-size="14.00">SoftmaxCrossEntropy</text>
</g>
<!-- 168393640&#45;&gt;168473656 -->
<g id="edge7" class="edge"><title>168393640&#45;&gt;168473656</title>
<path fill="none" stroke="black" d="M827.402,-144.934C817.732,-136.08 805.759,-125.119 795.18,-115.432"/>
<polygon fill="black" stroke="black" points="797.515,-112.825 787.776,-108.653 792.788,-117.988 797.515,-112.825"/>
</g>
<!-- 143702952 -->
<g id="node9" class="node"><title>143702952</title>
<polygon fill="#e0e0e0" stroke="black" points="365.833,-1750.54 365.833,-1765.46 324.95,-1776 267.133,-1776 226.25,-1765.46 226.25,-1750.54 267.133,-1740 324.95,-1740 365.833,-1750.54"/>
<text text-anchor="middle" x="296.041" y="-1754.3" font-family="Times New Roman,serif" font-size="14.00">b: (20), float32</text>
</g>
<!-- 143702952&#45;&gt;168391232 -->
<g id="edge10" class="edge"><title>143702952&#45;&gt;168391232</title>
<path fill="none" stroke="black" d="M335.907,-1742.73C364.538,-1732.49 403.561,-1718.52 435.555,-1707.07"/>
<polygon fill="black" stroke="black" points="437.003,-1710.27 445.239,-1703.61 434.645,-1703.68 437.003,-1710.27"/>
</g>
<!-- 168392632 -->
<g id="node41" class="node"><title>168392632</title>
<polygon fill="#e0e0e0" stroke="black" points="405.427,-1170.54 405.427,-1185.46 347.208,-1196 264.875,-1196 206.656,-1185.46 206.656,-1170.54 264.875,-1160 347.208,-1160 405.427,-1170.54"/>
<text text-anchor="middle" x="306.041" y="-1174.3" font-family="Times New Roman,serif" font-size="14.00">(100, 20, 3, 3), float32</text>
</g>
<!-- 168393696&#45;&gt;168392632 -->
<g id="edge16" class="edge"><title>168393696&#45;&gt;168392632</title>
<path fill="none" stroke="black" d="M306.041,-1232.43C306.041,-1224.67 306.041,-1215.28 306.041,-1206.56"/>
<polygon fill="black" stroke="black" points="309.541,-1206.4 306.041,-1196.4 302.541,-1206.4 309.541,-1206.4"/>
</g>
<!-- 83459040 -->
<g id="node11" class="node"><title>83459040</title>
<polygon fill="#e0e0e0" stroke="black" points="607.275,-2185.54 607.275,-2200.46 546.216,-2211 459.866,-2211 398.807,-2200.46 398.807,-2185.54 459.866,-2175 546.216,-2175 607.275,-2185.54"/>
<text text-anchor="middle" x="503.041" y="-2189.3" font-family="Times New Roman,serif" font-size="14.00">(100, 1, 28, 28), float32</text>
</g>
<!-- 86636248 -->
<g id="node36" class="node"><title>86636248</title>
<polygon fill="#6495ed" stroke="black" points="653.041,-2102.5 653.041,-2138.5 805.041,-2138.5 805.041,-2102.5 653.041,-2102.5"/>
<text text-anchor="middle" x="729.041" y="-2116.8" font-family="Times New Roman,serif" font-size="14.00">Convolution2DFunction</text>
</g>
<!-- 83459040&#45;&gt;86636248 -->
<g id="edge15" class="edge"><title>83459040&#45;&gt;86636248</title>
<path fill="none" stroke="black" d="M553.76,-2176.18C586.592,-2165.94 629.626,-2152.51 664.836,-2141.53"/>
<polygon fill="black" stroke="black" points="666.041,-2144.82 674.545,-2138.5 663.956,-2138.14 666.041,-2144.82"/>
</g>
<!-- 143809560 -->
<g id="node12" class="node"><title>143809560</title>
<polygon fill="#e0e0e0" stroke="black" points="405.427,-880.544 405.427,-895.456 347.208,-906 264.875,-906 206.656,-895.456 206.656,-880.544 264.875,-870 347.208,-870 405.427,-880.544"/>
<text text-anchor="middle" x="306.041" y="-884.3" font-family="Times New Roman,serif" font-size="14.00">(100, 20, 2, 2), float32</text>
</g>
<!-- 143809560&#45;&gt;168393136 -->
<g id="edge20" class="edge"><title>143809560&#45;&gt;168393136</title>
<path fill="none" stroke="black" d="M306.041,-869.934C306.041,-862.17 306.041,-852.784 306.041,-844.06"/>
<polygon fill="black" stroke="black" points="309.541,-843.899 306.041,-833.899 302.541,-843.899 309.541,-843.899"/>
</g>
<!-- 143703064 -->
<g id="node13" class="node"><title>143703064</title>
<polygon fill="#e0e0e0" stroke="black" points="833.275,-2185.54 833.275,-2200.46 772.216,-2211 685.866,-2211 624.807,-2200.46 624.807,-2185.54 685.866,-2175 772.216,-2175 833.275,-2185.54"/>
<text text-anchor="middle" x="729.041" y="-2189.3" font-family="Times New Roman,serif" font-size="14.00">W: (20, 1, 3, 3), float32</text>
</g>
<!-- 143703064&#45;&gt;86636248 -->
<g id="edge18" class="edge"><title>143703064&#45;&gt;86636248</title>
<path fill="none" stroke="black" d="M729.041,-2174.93C729.041,-2167.17 729.041,-2157.78 729.041,-2149.06"/>
<polygon fill="black" stroke="black" points="732.541,-2148.9 729.041,-2138.9 725.541,-2148.9 732.541,-2148.9"/>
</g>
<!-- 168473768 -->
<g id="node19" class="node"><title>168473768</title>
<polygon fill="#e0e0e0" stroke="black" points="807.926,-10.5442 807.926,-25.4558 785.148,-36 752.935,-36 730.156,-25.4558 730.156,-10.5442 752.935,-3.55271e-015 785.148,-0 807.926,-10.5442"/>
<text text-anchor="middle" x="769.041" y="-14.3" font-family="Times New Roman,serif" font-size="14.00">float32</text>
</g>
<!-- 168473656&#45;&gt;168473768 -->
<g id="edge19" class="edge"><title>168473656&#45;&gt;168473768</title>
<path fill="none" stroke="black" d="M769.041,-72.4339C769.041,-64.6695 769.041,-55.2842 769.041,-46.5597"/>
<polygon fill="black" stroke="black" points="772.541,-46.3987 769.041,-36.3987 765.541,-46.3987 772.541,-46.3987"/>
</g>
<!-- 143807544 -->
<g id="node15" class="node"><title>143807544</title>
<polygon fill="#e0e0e0" stroke="black" points="757.682,-735.544 757.682,-750.456 713.958,-761 652.124,-761 608.401,-750.456 608.401,-735.544 652.124,-725 713.958,-725 757.682,-735.544"/>
<text text-anchor="middle" x="683.041" y="-739.3" font-family="Times New Roman,serif" font-size="14.00">b: (100), float32</text>
</g>
<!-- 143807544&#45;&gt;143810232 -->
<g id="edge37" class="edge"><title>143807544&#45;&gt;143810232</title>
<path fill="none" stroke="black" d="M643.596,-727.049C616.865,-716.917 581.181,-703.392 551.717,-692.224"/>
<polygon fill="black" stroke="black" points="552.577,-688.807 541.985,-688.535 550.096,-695.352 552.577,-688.807"/>
</g>
<!-- 168393808 -->
<g id="node16" class="node"><title>168393808</title>
<polygon fill="#6495ed" stroke="black" points="442.541,-1377.5 442.541,-1413.5 543.541,-1413.5 543.541,-1377.5 442.541,-1377.5"/>
<text text-anchor="middle" x="493.041" y="-1391.8" font-family="Times New Roman,serif" font-size="14.00">MaxPooling2D</text>
</g>
<!-- 168393808&#45;&gt;168393528 -->
<g id="edge21" class="edge"><title>168393808&#45;&gt;168393528</title>
<path fill="none" stroke="black" d="M493.041,-1377.43C493.041,-1369.67 493.041,-1360.28 493.041,-1351.56"/>
<polygon fill="black" stroke="black" points="496.541,-1351.4 493.041,-1341.4 489.541,-1351.4 496.541,-1351.4"/>
</g>
<!-- 143809672&#45;&gt;143810232 -->
<g id="edge35" class="edge"><title>143809672&#45;&gt;143810232</title>
<path fill="none" stroke="black" d="M347.485,-726.703C374.909,-716.58 411.2,-703.185 441.164,-692.125"/>
<polygon fill="black" stroke="black" points="442.482,-695.369 450.651,-688.623 440.058,-688.802 442.482,-695.369"/>
</g>
<!-- 168394200 -->
<g id="node29" class="node"><title>168394200</title>
<polygon fill="#6495ed" stroke="black" points="255.541,-942.5 255.541,-978.5 356.541,-978.5 356.541,-942.5 255.541,-942.5"/>
<text text-anchor="middle" x="306.041" y="-956.8" font-family="Times New Roman,serif" font-size="14.00">MaxPooling2D</text>
</g>
<!-- 168393864&#45;&gt;168394200 -->
<g id="edge23" class="edge"><title>168393864&#45;&gt;168394200</title>
<path fill="none" stroke="black" d="M306.041,-1014.93C306.041,-1007.17 306.041,-997.784 306.041,-989.06"/>
<polygon fill="black" stroke="black" points="309.541,-988.899 306.041,-978.899 302.541,-988.899 309.541,-988.899"/>
</g>
<!-- 168391904 -->
<g id="node20" class="node"><title>168391904</title>
<polygon fill="#e0e0e0" stroke="black" points="838.124,-1895.54 838.124,-1910.46 774.225,-1921 683.858,-1921 619.959,-1910.46 619.959,-1895.54 683.858,-1885 774.225,-1885 838.124,-1895.54"/>
<text text-anchor="middle" x="729.041" y="-1899.3" font-family="Times New Roman,serif" font-size="14.00">(100, 20, 26, 26), float32</text>
</g>
<!-- 168392072 -->
<g id="node27" class="node"><title>168392072</title>
<polygon fill="#6495ed" stroke="black" points="678.541,-1812.5 678.541,-1848.5 779.541,-1848.5 779.541,-1812.5 678.541,-1812.5"/>
<text text-anchor="middle" x="729.041" y="-1826.8" font-family="Times New Roman,serif" font-size="14.00">MaxPooling2D</text>
</g>
<!-- 168391904&#45;&gt;168392072 -->
<g id="edge31" class="edge"><title>168391904&#45;&gt;168392072</title>
<path fill="none" stroke="black" d="M729.041,-1884.93C729.041,-1877.17 729.041,-1867.78 729.041,-1859.06"/>
<polygon fill="black" stroke="black" points="732.541,-1858.9 729.041,-1848.9 725.541,-1858.9 732.541,-1858.9"/>
</g>
<!-- 168473880 -->
<g id="node21" class="node"><title>168473880</title>
<polygon fill="#e0e0e0" stroke="black" points="771.531,-155.544 771.531,-170.456 724.967,-181 659.116,-181 612.552,-170.456 612.552,-155.544 659.116,-145 724.967,-145 771.531,-155.544"/>
<text text-anchor="middle" x="692.041" y="-159.3" font-family="Times New Roman,serif" font-size="14.00">(100, 10), float32</text>
</g>
<!-- 168473880&#45;&gt;168473656 -->
<g id="edge9" class="edge"><title>168473880&#45;&gt;168473656</title>
<path fill="none" stroke="black" d="M710.681,-144.934C720.351,-136.08 732.323,-125.119 742.902,-115.432"/>
<polygon fill="black" stroke="black" points="745.295,-117.988 750.307,-108.653 740.567,-112.825 745.295,-117.988"/>
</g>
<!-- 143809840 -->
<g id="node22" class="node"><title>143809840</title>
<polygon fill="#6495ed" stroke="black" points="465.041,-362.5 465.041,-398.5 529.041,-398.5 529.041,-362.5 465.041,-362.5"/>
<text text-anchor="middle" x="497.041" y="-376.8" font-family="Times New Roman,serif" font-size="14.00">Dropout</text>
</g>
<!-- 143809952 -->
<g id="node28" class="node"><title>143809952</title>
<polygon fill="#e0e0e0" stroke="black" points="580.973,-300.544 580.973,-315.456 531.807,-326 462.276,-326 413.11,-315.456 413.11,-300.544 462.276,-290 531.807,-290 580.973,-300.544"/>
<text text-anchor="middle" x="497.041" y="-304.3" font-family="Times New Roman,serif" font-size="14.00">(100, 100), float32</text>
</g>
<!-- 143809840&#45;&gt;143809952 -->
<g id="edge5" class="edge"><title>143809840&#45;&gt;143809952</title>
<path fill="none" stroke="black" d="M497.041,-362.434C497.041,-354.67 497.041,-345.284 497.041,-336.56"/>
<polygon fill="black" stroke="black" points="500.541,-336.399 497.041,-326.399 493.541,-336.399 500.541,-336.399"/>
</g>
<!-- 143703344 -->
<g id="node23" class="node"><title>143703344</title>
<polygon fill="#e0e0e0" stroke="black" points="602.124,-1750.54 602.124,-1765.46 538.225,-1776 447.858,-1776 383.959,-1765.46 383.959,-1750.54 447.858,-1740 538.225,-1740 602.124,-1750.54"/>
<text text-anchor="middle" x="493.041" y="-1754.3" font-family="Times New Roman,serif" font-size="14.00">W: (20, 20, 5, 5), float32</text>
</g>
<!-- 143703344&#45;&gt;168391232 -->
<g id="edge36" class="edge"><title>143703344&#45;&gt;168391232</title>
<path fill="none" stroke="black" d="M493.041,-1739.93C493.041,-1732.17 493.041,-1722.78 493.041,-1714.06"/>
<polygon fill="black" stroke="black" points="496.541,-1713.9 493.041,-1703.9 489.541,-1713.9 496.541,-1713.9"/>
</g>
<!-- 168392016 -->
<g id="node24" class="node"><title>168392016</title>
<polygon fill="#6495ed" stroke="black" points="702.041,-1957.5 702.041,-1993.5 756.041,-1993.5 756.041,-1957.5 702.041,-1957.5"/>
<text text-anchor="middle" x="729.041" y="-1971.8" font-family="Times New Roman,serif" font-size="14.00">ReLU</text>
</g>
<!-- 168392016&#45;&gt;168391904 -->
<g id="edge1" class="edge"><title>168392016&#45;&gt;168391904</title>
<path fill="none" stroke="black" d="M729.041,-1957.43C729.041,-1949.67 729.041,-1940.28 729.041,-1931.56"/>
<polygon fill="black" stroke="black" points="732.541,-1931.4 729.041,-1921.4 725.541,-1931.4 732.541,-1931.4"/>
</g>
<!-- 143809896 -->
<g id="node25" class="node"><title>143809896</title>
<polygon fill="#6495ed" stroke="black" points="470.041,-507.5 470.041,-543.5 524.041,-543.5 524.041,-507.5 470.041,-507.5"/>
<text text-anchor="middle" x="497.041" y="-521.8" font-family="Times New Roman,serif" font-size="14.00">ReLU</text>
</g>
<!-- 143808048 -->
<g id="node31" class="node"><title>143808048</title>
<polygon fill="#e0e0e0" stroke="black" points="580.973,-445.544 580.973,-460.456 531.807,-471 462.276,-471 413.11,-460.456 413.11,-445.544 462.276,-435 531.807,-435 580.973,-445.544"/>
<text text-anchor="middle" x="497.041" y="-449.3" font-family="Times New Roman,serif" font-size="14.00">(100, 100), float32</text>
</g>
<!-- 143809896&#45;&gt;143808048 -->
<g id="edge33" class="edge"><title>143809896&#45;&gt;143808048</title>
<path fill="none" stroke="black" d="M497.041,-507.434C497.041,-499.67 497.041,-490.284 497.041,-481.56"/>
<polygon fill="black" stroke="black" points="500.541,-481.399 497.041,-471.399 493.541,-481.399 500.541,-481.399"/>
</g>
<!-- 143807880 -->
<g id="node26" class="node"><title>143807880</title>
<polygon fill="#e0e0e0" stroke="black" points="785.67,-300.544 785.67,-315.456 730.824,-326 653.259,-326 598.412,-315.456 598.412,-300.544 653.259,-290 730.824,-290 785.67,-300.544"/>
<text text-anchor="middle" x="692.041" y="-304.3" font-family="Times New Roman,serif" font-size="14.00">W: (10, 100), float32</text>
</g>
<!-- 143810120 -->
<g id="node32" class="node"><title>143810120</title>
<polygon fill="#6495ed" stroke="black" points="641.541,-217.5 641.541,-253.5 742.541,-253.5 742.541,-217.5 641.541,-217.5"/>
<text text-anchor="middle" x="692.041" y="-231.8" font-family="Times New Roman,serif" font-size="14.00">LinearFunction</text>
</g>
<!-- 143807880&#45;&gt;143810120 -->
<g id="edge38" class="edge"><title>143807880&#45;&gt;143810120</title>
<path fill="none" stroke="black" d="M692.041,-289.934C692.041,-282.17 692.041,-272.784 692.041,-264.06"/>
<polygon fill="black" stroke="black" points="695.541,-263.899 692.041,-253.899 688.541,-263.899 695.541,-263.899"/>
</g>
<!-- 168394704 -->
<g id="node42" class="node"><title>168394704</title>
<polygon fill="#e0e0e0" stroke="black" points="838.124,-1750.54 838.124,-1765.46 774.225,-1776 683.858,-1776 619.959,-1765.46 619.959,-1750.54 683.858,-1740 774.225,-1740 838.124,-1750.54"/>
<text text-anchor="middle" x="729.041" y="-1754.3" font-family="Times New Roman,serif" font-size="14.00">(100, 20, 13, 13), float32</text>
</g>
<!-- 168392072&#45;&gt;168394704 -->
<g id="edge28" class="edge"><title>168392072&#45;&gt;168394704</title>
<path fill="none" stroke="black" d="M729.041,-1812.43C729.041,-1804.67 729.041,-1795.28 729.041,-1786.56"/>
<polygon fill="black" stroke="black" points="732.541,-1786.4 729.041,-1776.4 725.541,-1786.4 732.541,-1786.4"/>
</g>
<!-- 143809952&#45;&gt;143810120 -->
<g id="edge24" class="edge"><title>143809952&#45;&gt;143810120</title>
<path fill="none" stroke="black" d="M539.835,-291.528C567.857,-281.397 604.794,-268.043 635.262,-257.028"/>
<polygon fill="black" stroke="black" points="636.694,-260.232 644.908,-253.54 634.314,-253.649 636.694,-260.232"/>
</g>
<!-- 168394200&#45;&gt;143809560 -->
<g id="edge39" class="edge"><title>168394200&#45;&gt;143809560</title>
<path fill="none" stroke="black" d="M306.041,-942.434C306.041,-934.67 306.041,-925.284 306.041,-916.56"/>
<polygon fill="black" stroke="black" points="309.541,-916.399 306.041,-906.399 302.541,-916.399 309.541,-916.399"/>
</g>
<!-- 143703568 -->
<g id="node30" class="node"><title>143703568</title>
<polygon fill="#e0e0e0" stroke="black" points="990.833,-2185.54 990.833,-2200.46 949.95,-2211 892.133,-2211 851.25,-2200.46 851.25,-2185.54 892.133,-2175 949.95,-2175 990.833,-2185.54"/>
<text text-anchor="middle" x="921.041" y="-2189.3" font-family="Times New Roman,serif" font-size="14.00">b: (20), float32</text>
</g>
<!-- 143703568&#45;&gt;86636248 -->
<g id="edge3" class="edge"><title>143703568&#45;&gt;86636248</title>
<path fill="none" stroke="black" d="M881.724,-2177.56C853.785,-2167.3 815.868,-2153.38 784.809,-2141.98"/>
<polygon fill="black" stroke="black" points="786.003,-2138.69 775.409,-2138.53 783.59,-2145.26 786.003,-2138.69"/>
</g>
<!-- 143808048&#45;&gt;143809840 -->
<g id="edge40" class="edge"><title>143808048&#45;&gt;143809840</title>
<path fill="none" stroke="black" d="M497.041,-434.934C497.041,-427.17 497.041,-417.784 497.041,-409.06"/>
<polygon fill="black" stroke="black" points="500.541,-408.899 497.041,-398.899 493.541,-408.899 500.541,-408.899"/>
</g>
<!-- 143810120&#45;&gt;168473880 -->
<g id="edge6" class="edge"><title>143810120&#45;&gt;168473880</title>
<path fill="none" stroke="black" d="M692.041,-217.434C692.041,-209.67 692.041,-200.284 692.041,-191.56"/>
<polygon fill="black" stroke="black" points="695.541,-191.399 692.041,-181.399 688.541,-191.399 695.541,-191.399"/>
</g>
<!-- 143810344 -->
<g id="node37" class="node"><title>143810344</title>
<polygon fill="#e0e0e0" stroke="black" points="580.973,-590.544 580.973,-605.456 531.807,-616 462.276,-616 413.11,-605.456 413.11,-590.544 462.276,-580 531.807,-580 580.973,-590.544"/>
<text text-anchor="middle" x="497.041" y="-594.3" font-family="Times New Roman,serif" font-size="14.00">(100, 100), float32</text>
</g>
<!-- 143810232&#45;&gt;143810344 -->
<g id="edge27" class="edge"><title>143810232&#45;&gt;143810344</title>
<path fill="none" stroke="black" d="M497.041,-652.434C497.041,-644.67 497.041,-635.284 497.041,-626.56"/>
<polygon fill="black" stroke="black" points="500.541,-626.399 497.041,-616.399 493.541,-626.399 500.541,-626.399"/>
</g>
<!-- 143808216 -->
<g id="node34" class="node"><title>143808216</title>
<polygon fill="#e0e0e0" stroke="black" points="942.833,-300.544 942.833,-315.456 901.95,-326 844.133,-326 803.25,-315.456 803.25,-300.544 844.133,-290 901.95,-290 942.833,-300.544"/>
<text text-anchor="middle" x="873.041" y="-304.3" font-family="Times New Roman,serif" font-size="14.00">b: (10), float32</text>
</g>
<!-- 143808216&#45;&gt;143810120 -->
<g id="edge4" class="edge"><title>143808216&#45;&gt;143810120</title>
<path fill="none" stroke="black" d="M835.098,-292.221C809.113,-282.1 774.283,-268.533 745.496,-257.321"/>
<polygon fill="black" stroke="black" points="746.576,-253.985 735.987,-253.617 744.035,-260.508 746.576,-253.985"/>
</g>
<!-- 168392408 -->
<g id="node35" class="node"><title>168392408</title>
<polygon fill="#e0e0e0" stroke="black" points="592.427,-1460.54 592.427,-1475.46 534.208,-1486 451.875,-1486 393.656,-1475.46 393.656,-1460.54 451.875,-1450 534.208,-1450 592.427,-1460.54"/>
<text text-anchor="middle" x="493.041" y="-1464.3" font-family="Times New Roman,serif" font-size="14.00">(100, 20, 9, 9), float32</text>
</g>
<!-- 168392408&#45;&gt;168393808 -->
<g id="edge8" class="edge"><title>168392408&#45;&gt;168393808</title>
<path fill="none" stroke="black" d="M493.041,-1449.93C493.041,-1442.17 493.041,-1432.78 493.041,-1424.06"/>
<polygon fill="black" stroke="black" points="496.541,-1423.9 493.041,-1413.9 489.541,-1423.9 496.541,-1423.9"/>
</g>
<!-- 168392576 -->
<g id="node40" class="node"><title>168392576</title>
<polygon fill="#e0e0e0" stroke="black" points="838.124,-2040.54 838.124,-2055.46 774.225,-2066 683.858,-2066 619.959,-2055.46 619.959,-2040.54 683.858,-2030 774.225,-2030 838.124,-2040.54"/>
<text text-anchor="middle" x="729.041" y="-2044.3" font-family="Times New Roman,serif" font-size="14.00">(100, 20, 26, 26), float32</text>
</g>
<!-- 86636248&#45;&gt;168392576 -->
<g id="edge29" class="edge"><title>86636248&#45;&gt;168392576</title>
<path fill="none" stroke="black" d="M729.041,-2102.43C729.041,-2094.67 729.041,-2085.28 729.041,-2076.56"/>
<polygon fill="black" stroke="black" points="732.541,-2076.4 729.041,-2066.4 725.541,-2076.4 732.541,-2076.4"/>
</g>
<!-- 143810344&#45;&gt;143809896 -->
<g id="edge17" class="edge"><title>143810344&#45;&gt;143809896</title>
<path fill="none" stroke="black" d="M497.041,-579.934C497.041,-572.17 497.041,-562.784 497.041,-554.06"/>
<polygon fill="black" stroke="black" points="500.541,-553.899 497.041,-543.899 493.541,-553.899 500.541,-553.899"/>
</g>
<!-- 168394536 -->
<g id="node38" class="node"><title>168394536</title>
<polygon fill="#6495ed" stroke="black" points="466.041,-1522.5 466.041,-1558.5 520.041,-1558.5 520.041,-1522.5 466.041,-1522.5"/>
<text text-anchor="middle" x="493.041" y="-1536.8" font-family="Times New Roman,serif" font-size="14.00">ReLU</text>
</g>
<!-- 168394536&#45;&gt;168392408 -->
<g id="edge2" class="edge"><title>168394536&#45;&gt;168392408</title>
<path fill="none" stroke="black" d="M493.041,-1522.43C493.041,-1514.67 493.041,-1505.28 493.041,-1496.56"/>
<polygon fill="black" stroke="black" points="496.541,-1496.4 493.041,-1486.4 489.541,-1496.4 496.541,-1496.4"/>
</g>
<!-- 168392520&#45;&gt;168394536 -->
<g id="edge26" class="edge"><title>168392520&#45;&gt;168394536</title>
<path fill="none" stroke="black" d="M493.041,-1594.93C493.041,-1587.17 493.041,-1577.78 493.041,-1569.06"/>
<polygon fill="black" stroke="black" points="496.541,-1568.9 493.041,-1558.9 489.541,-1568.9 496.541,-1568.9"/>
</g>
<!-- 168392576&#45;&gt;168392016 -->
<g id="edge14" class="edge"><title>168392576&#45;&gt;168392016</title>
<path fill="none" stroke="black" d="M729.041,-2029.93C729.041,-2022.17 729.041,-2012.78 729.041,-2004.06"/>
<polygon fill="black" stroke="black" points="732.541,-2003.9 729.041,-1993.9 725.541,-2003.9 732.541,-2003.9"/>
</g>
<!-- 168392632&#45;&gt;168393472 -->
<g id="edge22" class="edge"><title>168392632&#45;&gt;168393472</title>
<path fill="none" stroke="black" d="M306.041,-1159.93C306.041,-1152.17 306.041,-1142.78 306.041,-1134.06"/>
<polygon fill="black" stroke="black" points="309.541,-1133.9 306.041,-1123.9 302.541,-1133.9 309.541,-1133.9"/>
</g>
<!-- 168394704&#45;&gt;168391232 -->
<g id="edge13" class="edge"><title>168394704&#45;&gt;168391232</title>
<path fill="none" stroke="black" d="M676.078,-1741.18C641.647,-1730.89 596.472,-1717.4 559.617,-1706.39"/>
<polygon fill="black" stroke="black" points="560.533,-1703.01 549.949,-1703.5 558.529,-1709.72 560.533,-1703.01"/>
</g>
</g>
</svg>
